<svg width="475" height="59" viewBox="0 0 475 59" fill="none" xmlns="http://www.w3.org/2000/svg">
<path d="M19.7194 49.8976C21.2314 49.9256 22.7337 49.6502 24.1373 49.0878C25.438 48.5439 26.6375 47.7845 27.6851 46.8415L33.6004 52.5172L33.4454 52.6756C31.6681 54.384 29.5785 55.7347 27.2905 56.6542C24.8879 57.635 22.3146 58.1304 19.7194 58.1118C17.1043 58.1258 14.5143 57.6033 12.1094 56.5767C9.76598 55.5857 7.63648 54.151 5.83829 52.3517C4.03632 50.5493 2.59118 48.4229 1.57885 46.0845C0.519017 43.6615 -0.0187517 41.0427 0.000499168 38.3984C-0.0155231 35.7419 0.521996 33.1112 1.57885 30.6736C2.58631 28.3211 4.03175 26.1812 5.83829 24.3677C7.63721 22.5693 9.76653 21.1347 12.1094 20.1427C14.5141 19.115 17.1041 18.5913 19.7194 18.604C22.3145 18.5876 24.8873 19.0829 27.2905 20.0617C29.578 20.9837 31.6674 22.3354 33.4454 24.0438L33.6004 24.2022L27.6851 29.8744C26.6366 28.9326 25.4373 28.1732 24.1373 27.6281C22.7344 27.0613 21.2324 26.78 19.7194 26.8007C18.1856 26.7907 16.6666 27.1 15.2591 27.709C13.8903 28.2968 12.6457 29.1392 11.5915 30.1913C10.5374 31.2548 9.6999 32.5127 9.12536 33.8952C8.51815 35.315 8.20764 36.8438 8.21287 38.3879C8.20338 39.9194 8.51293 41.4362 9.12184 42.8418C10.305 45.6011 12.5014 47.8024 15.2591 48.9927C16.6674 49.599 18.186 49.9071 19.7194 49.8976Z" fill="white"/>
<path d="M77.296 38.3895C77.3681 40.9997 76.8766 43.5947 75.8551 45.9981C74.8682 48.3312 73.4317 50.4476 71.6273 52.2265C69.8148 54.0083 67.6888 55.4407 65.3562 56.4516C62.9559 57.5066 60.3682 58.0694 57.7463 58.1064H57.5877C54.9658 58.0694 52.378 57.5066 49.9778 56.4516C47.6447 55.4415 45.5186 54.0091 43.7067 52.2265C41.9023 50.4476 40.4658 48.3312 39.4789 45.9981C38.4513 43.5961 37.9538 41.001 38.0204 38.3895V18.6725H46.3032L46.2222 38.3895C46.2093 41.4193 47.3842 44.3338 49.4951 46.5086C50.5301 47.5667 51.7631 48.4113 53.1239 48.9944C54.5312 49.5997 56.0486 49.9078 57.5807 49.8992C59.1 49.9151 60.6068 49.6228 62.0099 49.04C63.413 48.4572 64.6832 47.596 65.7437 46.5086C66.7778 45.4479 67.6068 44.2053 68.1888 42.8434C68.7977 41.4379 69.1072 39.9211 69.0977 38.3895V18.6725H77.2995L77.296 38.3895Z" fill="white"/>
<path d="M101.828 18.681C104.469 18.6623 107.087 19.1847 109.518 20.2161C114.249 22.2104 118.013 25.973 120.007 30.7013C121.023 33.1359 121.546 35.7477 121.546 38.3856C121.546 41.0235 121.023 43.6353 120.007 46.0699C118.013 50.7982 114.249 54.5608 109.518 56.5551C107.081 57.5685 104.467 58.0902 101.828 58.0902C99.1877 58.0902 96.5739 57.5685 94.1366 56.5551C89.4059 54.5597 85.6414 50.7976 83.6448 46.0699C82.6119 43.6399 82.0891 41.0239 82.1087 38.3838V8.43523L90.2999 0.393555V38.3874C90.2904 39.9189 90.6 41.4357 91.2089 42.8413C92.3954 45.6032 94.5972 47.8049 97.3602 48.9922C98.7701 49.5893 100.286 49.897 101.817 49.897C103.348 49.897 104.864 49.5893 106.274 48.9922C109.037 47.8049 111.239 45.6032 112.425 42.8413C113.023 41.4323 113.33 39.9176 113.33 38.3874C113.33 36.8571 113.023 35.3424 112.425 33.9335C111.24 31.1716 109.037 28.9707 106.274 27.786C104.866 27.1806 103.349 26.8726 101.817 26.8811C101.316 26.8792 100.815 26.9051 100.316 26.9586C99.8653 27.0087 99.4181 27.0875 98.9774 27.1945L97.0854 19.2338C97.8182 19.1282 98.5687 19.012 99.3332 18.8817C100.157 18.7442 100.992 18.6771 101.828 18.681Z" fill="white"/>
<path d="M132.351 10.4074H124.226V8.67165L132.351 0.475037V10.4074ZM132.351 58.0942H124.226V18.6815H132.351V58.0942Z" fill="white"/>
<path d="M156.568 49.8976C158.079 49.9261 159.58 49.6507 160.982 49.0878C162.284 48.544 163.485 47.7846 164.534 46.8415L170.449 52.5172L170.29 52.6756C168.515 54.3847 166.426 55.7356 164.139 56.6542C161.736 57.6347 159.163 58.1301 156.568 58.1118C153.952 58.1258 151.361 57.6033 148.954 56.5767C146.612 55.5841 144.483 54.1496 142.683 52.3517C140.884 50.5474 139.439 48.4215 138.424 46.0845C137.367 43.6607 136.83 41.0423 136.849 38.3984C136.834 35.7423 137.37 33.1119 138.424 30.6736C139.434 28.3225 140.879 26.183 142.683 24.3677C144.483 22.5708 146.612 21.1364 148.954 20.1427C151.36 19.115 153.952 18.5913 156.568 18.604C159.163 18.5876 161.736 19.0829 164.139 20.0617C166.421 20.9845 168.504 22.3363 170.276 24.0438L170.435 24.2022L164.534 29.8744C163.484 28.9325 162.283 28.1732 160.982 27.6281C159.581 27.061 158.08 26.7797 156.568 26.8007C155.035 26.7912 153.518 27.1005 152.111 27.709C150.739 28.2957 149.49 29.1381 148.433 30.1913C147.379 31.2548 146.541 32.5127 145.967 33.8952C145.361 35.3153 145.052 36.8441 145.058 38.3879C145.048 39.9194 145.358 41.4362 145.967 42.8418C147.153 45.6037 149.355 47.8054 152.118 48.9927C153.523 49.5975 155.038 49.9056 156.568 49.8976Z" fill="white"/>
<path d="M220.852 27.0408C219.342 27.0317 217.846 27.3308 216.455 27.9199C215.065 28.5089 213.81 29.3756 212.766 30.4666C211.739 31.5486 210.911 32.8038 210.321 34.1741C209.713 35.5799 209.405 37.0967 209.416 38.628C209.381 41.2236 208.818 43.7849 207.76 46.1557C206.73 48.4596 205.27 50.5461 203.458 52.3032C201.631 54.0731 199.491 55.49 197.148 56.4824C194.744 57.5118 192.154 58.0355 189.538 58.0211V49.5709C191.071 49.58 192.589 49.2707 193.995 48.6626C196.732 47.5048 198.91 45.3278 200.069 42.5926C200.675 41.1863 200.983 39.6698 200.974 38.1387C201.011 35.5349 201.561 32.9638 202.591 30.5723C203.585 28.2536 205.003 26.1411 206.773 24.3438C208.544 22.5486 210.646 21.1137 212.964 20.1188C215.354 19.0888 217.932 18.565 220.535 18.5802L220.852 27.0408Z" fill="white"/>
<path d="M242.851 18.6816C245.466 18.6689 248.056 19.1925 250.461 20.2202C252.804 21.212 254.933 22.6466 256.732 24.4453C258.533 26.2484 259.978 28.3745 260.992 30.7124C262.033 33.1406 262.57 35.7549 262.57 38.3968C262.57 41.0386 262.033 43.6529 260.992 46.0811C259.985 48.4111 258.539 50.5258 256.732 52.3095C254.924 54.082 252.798 55.4975 250.465 56.4818C248.06 57.5111 245.47 58.0348 242.855 58.0204C240.212 58.0401 237.595 57.5164 235.164 56.4818C230.461 54.5144 226.721 50.7773 224.753 46.0776C223.737 43.643 223.213 41.0312 223.213 38.3932C223.213 35.7553 223.737 33.1435 224.753 30.7089C225.739 28.3748 227.157 26.2483 228.935 24.4418C230.754 22.6046 232.922 21.1488 235.312 20.1597C237.702 19.1706 240.265 18.6681 242.851 18.6816ZM242.851 49.8203C244.396 49.8269 245.926 49.5178 247.347 48.9119C248.716 48.3424 249.961 47.5125 251.014 46.4684C252.051 45.4251 252.881 44.1945 253.459 42.8419C254.068 41.4363 254.378 39.9195 254.368 38.388C254.374 36.8442 254.065 35.3154 253.459 33.8953C252.894 32.5243 252.063 31.2786 251.014 30.2301C249.965 29.1817 248.718 28.3512 247.347 27.7866C245.923 27.1901 244.395 26.8829 242.851 26.8829C241.307 26.8829 239.779 27.1901 238.356 27.7866C236.979 28.3631 235.722 29.1919 234.649 30.2301C233.584 31.2736 232.738 32.5198 232.162 33.8953C231.559 35.3161 231.251 36.8446 231.257 38.388C231.248 39.9191 231.556 41.4356 232.162 42.8419C232.745 44.2022 233.59 45.4345 234.649 46.4684C235.72 47.5079 236.978 48.3368 238.356 48.9119C239.776 49.5178 241.306 49.8269 242.851 49.8203Z" fill="white"/>
<path d="M265.399 8.437L273.605 0.236877V58.0955H265.399V8.437Z" fill="white"/>
<path d="M318.025 38.3895C318.092 41.001 317.594 43.5961 316.567 45.9981C315.578 48.3306 314.142 50.4467 312.339 52.2265C310.526 54.0076 308.4 55.4398 306.068 56.4516C303.667 57.5066 301.08 58.0694 298.458 58.1064H298.299C295.676 58.0695 293.087 57.5067 290.686 56.4516C288.354 55.4406 286.229 54.0083 284.418 52.2265C282.614 50.4476 281.177 48.3312 280.19 45.9981C279.163 43.5961 278.665 41.001 278.732 38.3895V18.6725H287.011L286.934 38.3895C286.917 41.4201 288.092 44.3361 290.207 46.5086C291.241 47.5673 292.474 48.412 293.835 48.9944C295.243 49.6001 296.76 49.9082 298.292 49.8992C299.811 49.9143 301.318 49.6216 302.721 49.0388C304.124 48.4561 305.394 47.5954 306.455 46.5086C307.488 45.447 308.317 44.2046 308.9 42.8434C309.506 41.4371 309.815 39.9206 309.806 38.3895V18.6725H318.011L318.025 38.3895Z" fill="white"/>
<path d="M330.485 38.3107C330.479 39.8541 330.787 41.3826 331.39 42.8033C332.562 45.5989 334.787 47.822 337.584 48.993C339.006 49.5962 340.535 49.9041 342.08 49.8979V58.0945C339.477 58.1113 336.899 57.5886 334.508 56.5594C332.195 55.5714 330.083 54.168 328.276 52.4189C326.47 50.6578 325.011 48.5722 323.978 46.2714C322.895 43.8935 322.318 41.3171 322.283 38.705V8.27759L330.485 0V18.6818H341.921V26.8819H330.485V38.3107Z" fill="white"/>
<path d="M353.045 10.4074H344.92V8.67165L353.045 0.475037V10.4074ZM353.045 58.0942H344.92V18.6815H353.045V58.0942Z" fill="white"/>
<path d="M377.18 18.6816C379.797 18.6688 382.388 19.1925 384.794 20.2202C387.136 21.2128 389.265 22.6473 391.065 24.4452C392.864 26.2502 394.308 28.3759 395.324 30.7124C396.363 33.1412 396.899 35.7553 396.899 38.3967C396.899 41.0382 396.363 43.6522 395.324 46.081C394.315 48.4097 392.869 50.5239 391.065 52.3095C389.256 54.0828 387.128 55.4995 384.794 56.4852C382.371 57.5008 379.77 58.0238 377.143 58.0238C374.516 58.0238 371.915 57.5008 369.493 56.4852C364.788 54.5193 361.047 50.7818 359.078 46.081C358.065 43.6459 357.543 41.0343 357.543 38.3967C357.543 35.7591 358.065 33.1476 359.078 30.7124C360.065 28.3789 361.484 26.2526 363.26 24.4452C365.081 22.6089 367.25 21.154 369.64 20.1655C372.03 19.1771 374.594 18.6749 377.18 18.6886V18.6816ZM377.18 49.8202C380.237 49.8172 383.17 48.6133 385.347 46.4683C386.384 45.4251 387.214 44.1944 387.792 42.8418C388.398 41.4355 388.706 39.9191 388.697 38.3879C388.694 36.4882 388.22 34.6189 387.319 32.9462C386.418 31.2734 385.118 29.8491 383.533 28.8C381.948 27.7508 380.129 27.1093 378.236 26.9325C376.344 26.7557 374.437 27.0491 372.685 27.7866C371.308 28.3631 370.051 29.1918 368.978 30.23C367.919 31.2744 367.08 32.5208 366.512 33.8953C365.906 35.3153 365.597 36.8441 365.603 38.3879C365.594 39.9195 365.903 41.4363 366.512 42.8418C367.087 44.2013 367.925 45.4338 368.978 46.4683C370.05 47.5078 371.307 48.3368 372.685 48.9118C374.106 49.5174 375.635 49.8266 377.18 49.8202Z" fill="white"/>
<path d="M440.676 58.0947H432.471V38.3778C432.477 36.8344 432.168 35.306 431.565 33.8852C430.989 32.5105 430.145 31.2645 429.081 30.2199C428.018 29.1891 426.775 28.3611 425.414 27.7764C424.004 27.1793 422.488 26.8716 420.957 26.8716C419.426 26.8716 417.91 27.1793 416.5 27.7764C415.138 28.3593 413.895 29.1876 412.833 30.2199C411.773 31.2642 410.935 32.5107 410.367 33.8852C409.761 35.3052 409.451 36.834 409.458 38.3778V58.0947H401.256V38.3778C401.19 35.7675 401.687 33.1736 402.715 30.7727C403.708 28.4316 405.143 26.3038 406.942 24.5055C408.757 22.7009 410.899 21.2564 413.252 20.2488C415.696 19.2087 418.325 18.6725 420.982 18.6725C423.638 18.6725 426.267 19.2087 428.712 20.2488C431.064 21.2582 433.205 22.7024 435.021 24.5055C436.819 26.3047 438.255 28.4323 439.249 30.7727C440.275 33.1741 440.772 35.7676 440.708 38.3778L440.676 58.0947Z" fill="white"/>
<path d="M474.905 27.0408C473.392 27.0293 471.892 27.3272 470.499 27.9164C469.105 28.5055 467.847 29.3734 466.802 30.4666C465.774 31.5486 464.946 32.8038 464.357 34.1741C463.749 35.5799 463.441 37.0967 463.451 38.628C463.417 41.2236 462.853 43.7849 461.795 46.1557C460.766 48.4596 459.306 50.5461 457.494 52.3032C455.672 54.0713 453.538 55.4881 451.201 56.4824C448.797 57.5118 446.207 58.0355 443.592 58.0211V49.5709C445.124 49.58 446.642 49.2707 448.048 48.6626C450.785 47.5048 452.964 45.3278 454.122 42.5926C454.728 41.1863 455.037 39.6698 455.028 38.1387C455.064 35.5349 455.614 32.9638 456.645 30.5723C457.638 28.2536 459.056 26.1411 460.827 24.3438C462.596 22.5478 464.699 21.1129 467.017 20.1188C469.407 19.0888 471.985 18.565 474.588 18.5802L474.905 27.0408Z" fill="white"/>
</svg>
