<svg id="Escrita" xmlns="http://www.w3.org/2000/svg" viewBox="0 0 1347.97 165"><path d="M73.66,158.3A32.1,32.1,0,0,0,86.2,156a35.55,35.55,0,0,0,10.07-6.38l16.79,16.12-.44.45a54.57,54.57,0,0,1-17.47,11.3,55.77,55.77,0,0,1-21.49,4.14,54.25,54.25,0,0,1-21.6-4.36,56,56,0,0,1-17.8-12,57.47,57.47,0,0,1-12.09-17.8,53.53,53.53,0,0,1-4.48-21.83,54.36,54.36,0,0,1,4.48-21.94A57.39,57.39,0,0,1,34.26,85.76a56.13,56.13,0,0,1,17.8-12,54.26,54.26,0,0,1,21.6-4.37,56,56,0,0,1,21.49,4.14,54.76,54.76,0,0,1,17.47,11.31l.44.45L96.27,101.43A35.77,35.77,0,0,0,86.2,95.05,32.28,32.28,0,0,0,73.66,92.7,31.35,31.35,0,0,0,61,95.28a33.38,33.38,0,0,0-10.41,7,32.86,32.86,0,0,0-7.05,10.52A32.19,32.19,0,0,0,41,125.61a31.35,31.35,0,0,0,2.58,12.65A33.33,33.33,0,0,0,61,155.73,31.51,31.51,0,0,0,73.66,158.3Z" transform="translate(-17.69 -16.58)"/><path d="M237.09,125.61A51.63,51.63,0,0,1,233,147.22a54.85,54.85,0,0,1-12,17.69,58.67,58.67,0,0,1-17.8,12,55.6,55.6,0,0,1-21.6,4.7h-.45a55.6,55.6,0,0,1-21.6-4.7,58.55,58.55,0,0,1-17.8-12,54.85,54.85,0,0,1-12-17.69,51.63,51.63,0,0,1-4.14-21.61v-56h23.51l-.23,56a32.92,32.92,0,0,0,9.29,23.06,32.08,32.08,0,0,0,10.3,7.06,31.55,31.55,0,0,0,12.65,2.57,31.89,31.89,0,0,0,23.17-9.63,34.12,34.12,0,0,0,6.94-10.41,31.35,31.35,0,0,0,2.58-12.65v-56h23.28Z" transform="translate(-17.69 -16.58)"/><path d="M306.72,69.64A54.88,54.88,0,0,1,328.55,74a55.87,55.87,0,0,1,29.77,29.78,56.69,56.69,0,0,1,0,43.65,55.87,55.87,0,0,1-29.77,29.78,56.83,56.83,0,0,1-43.66,0,55.93,55.93,0,0,1-29.78-29.78,54.8,54.8,0,0,1-4.36-21.83V40.54L274,17.7V125.61a31.35,31.35,0,0,0,2.58,12.65,33.33,33.33,0,0,0,17.46,17.47,32.42,32.42,0,0,0,25.3,0,33.33,33.33,0,0,0,17.46-17.47,32.42,32.42,0,0,0,0-25.3A33.27,33.27,0,0,0,319.37,95.5a31.55,31.55,0,0,0-12.65-2.57,38.51,38.51,0,0,0-4.26.22,30.29,30.29,0,0,0-3.8.67l-5.37-22.61c2.08-.3,4.21-.63,6.38-1A41.81,41.81,0,0,1,306.72,69.64Z" transform="translate(-17.69 -16.58)"/><path d="M393.36,46.14H370.3V41.21l23.06-23.28Zm0,135.44H370.3V69.64h23.06Z" transform="translate(-17.69 -16.58)"/><path d="M462.09,158.3A32,32,0,0,0,474.62,156a35.6,35.6,0,0,0,10.08-6.38l16.79,16.12-.45.45a54.41,54.41,0,0,1-17.46,11.3,55.81,55.81,0,0,1-21.49,4.14,54.3,54.3,0,0,1-21.61-4.36,56.21,56.21,0,0,1-17.8-12,57.82,57.82,0,0,1-12.09-17.8,53.69,53.69,0,0,1-4.47-21.83,54.52,54.52,0,0,1,4.47-21.94,57.73,57.73,0,0,1,12.09-17.91,56.35,56.35,0,0,1,17.8-12,54.31,54.31,0,0,1,21.61-4.37,56,56,0,0,1,21.49,4.14A54.61,54.61,0,0,1,501,84.87l.45.45L484.7,101.43a35.82,35.82,0,0,0-10.08-6.38,32.2,32.2,0,0,0-12.53-2.35,31.35,31.35,0,0,0-12.65,2.58,33.38,33.38,0,0,0-10.41,7,32.86,32.86,0,0,0-7,10.52,32.19,32.19,0,0,0-2.58,12.76A31.35,31.35,0,0,0,432,138.26a33.33,33.33,0,0,0,17.46,17.47A31.51,31.51,0,0,0,462.09,158.3Z" transform="translate(-17.69 -16.58)"/><path d="M644.55,93.38a31.48,31.48,0,0,0-22.95,9.73,35.89,35.89,0,0,0-6.94,10.53,31.34,31.34,0,0,0-2.57,12.65,54.29,54.29,0,0,1-4.7,21.38,56.34,56.34,0,0,1-12.21,17.46A58.58,58.58,0,0,1,577.27,177a54.09,54.09,0,0,1-21.6,4.37v-24a31.39,31.39,0,0,0,12.65-2.58,32.46,32.46,0,0,0,17.24-17.24,31.51,31.51,0,0,0,2.57-12.65,56.33,56.33,0,0,1,4.59-21.49,57.42,57.42,0,0,1,11.87-17.69,55.34,55.34,0,0,1,17.57-12,53.49,53.49,0,0,1,21.49-4.37Z" transform="translate(-17.69 -16.58)"/><path d="M707,69.64A54.26,54.26,0,0,1,728.61,74a56.1,56.1,0,0,1,17.8,12,57.59,57.59,0,0,1,12.09,17.8,55.4,55.4,0,0,1,0,43.65,56.17,56.17,0,0,1-12.09,17.69A57.13,57.13,0,0,1,728.61,177a54.09,54.09,0,0,1-21.6,4.37A54.67,54.67,0,0,1,685.18,177a55.1,55.1,0,0,1-29.55-29.55,56.69,56.69,0,0,1,0-43.65A57,57,0,0,1,667.5,86,55.17,55.17,0,0,1,707,69.64Zm0,88.44a32.16,32.16,0,0,0,12.76-2.58,32.51,32.51,0,0,0,10.41-6.94,33,33,0,0,0,6.94-10.3,31.35,31.35,0,0,0,2.58-12.65,32.19,32.19,0,0,0-2.58-12.76A31.9,31.9,0,0,0,719.77,95.5a33,33,0,0,0-25.52,0,34,34,0,0,0-10.52,6.94,31.71,31.71,0,0,0-7.06,10.41,32.36,32.36,0,0,0-2.57,12.76,31.51,31.51,0,0,0,2.57,12.65,32,32,0,0,0,7.06,10.3,33.8,33.8,0,0,0,10.52,6.94A32.16,32.16,0,0,0,707,158.08Z" transform="translate(-17.69 -16.58)"/><path d="M771,40.54l23.29-23.29V181.58H771Z" transform="translate(-17.69 -16.58)"/><path d="M920.37,125.61a51.63,51.63,0,0,1-4.14,21.61,55,55,0,0,1-12,17.69,58.79,58.79,0,0,1-17.8,12,55.6,55.6,0,0,1-21.6,4.7h-.45a55.64,55.64,0,0,1-21.61-4.7,58.62,58.62,0,0,1-17.79-12,54.85,54.85,0,0,1-12-17.69,51.63,51.63,0,0,1-4.14-21.61v-56h23.5l-.22,56a32.81,32.81,0,0,0,9.29,23.06,32,32,0,0,0,10.3,7.06,31.51,31.51,0,0,0,12.65,2.57,31.93,31.93,0,0,0,23.17-9.63,34.3,34.3,0,0,0,6.94-10.41,31.51,31.51,0,0,0,2.57-12.65v-56h23.29Z" transform="translate(-17.69 -16.58)"/><path d="M955.74,125.39a32.32,32.32,0,0,0,2.57,12.76,32.8,32.8,0,0,0,17.58,17.58,32.32,32.32,0,0,0,12.76,2.57v23.28a53.44,53.44,0,0,1-21.49-4.36,58.43,58.43,0,0,1-17.69-11.76A57,57,0,0,1,937.27,148a53.64,53.64,0,0,1-4.81-21.49V40.09l23.28-23.51V69.64H988.2V92.93H955.74v32.46Z" transform="translate(-17.69 -16.58)"/><path d="M1019.77,46.14H996.71V41.21l23.06-23.28Zm0,135.44H996.71V69.64h23.06Z" transform="translate(-17.69 -16.58)"/><path d="M1088.27,69.64A54.31,54.31,0,0,1,1109.88,74a56.21,56.21,0,0,1,17.8,12,57.94,57.94,0,0,1,12.09,17.8,55.52,55.52,0,0,1,0,43.65,56.5,56.5,0,0,1-12.09,17.69,57.24,57.24,0,0,1-17.8,11.86,56.14,56.14,0,0,1-43.43,0,55.08,55.08,0,0,1-29.56-29.55,56.81,56.81,0,0,1,0-43.65A57.16,57.16,0,0,1,1048.76,86a55.21,55.21,0,0,1,39.51-16.35Zm0,88.44a33.06,33.06,0,0,0,23.18-9.52,33,33,0,0,0,6.94-10.3,31.51,31.51,0,0,0,2.57-12.65,32.74,32.74,0,0,0-45.45-30.11,34,34,0,0,0-10.52,6.94,31.53,31.53,0,0,0-7,10.41,32.19,32.19,0,0,0-2.58,12.76,31.35,31.35,0,0,0,2.58,12.65,31.79,31.79,0,0,0,7,10.3,33.8,33.8,0,0,0,10.52,6.94A32.19,32.19,0,0,0,1088.27,158.08Z" transform="translate(-17.69 -16.58)"/><path d="M1268.5,181.58h-23.29v-56a32.36,32.36,0,0,0-2.57-12.76,31.83,31.83,0,0,0-7.05-10.41,34.55,34.55,0,0,0-10.41-6.94,32.42,32.42,0,0,0-25.3,0,34.3,34.3,0,0,0-10.41,6.94,31.53,31.53,0,0,0-7,10.41,32.19,32.19,0,0,0-2.58,12.76v56h-23.28v-56a51.62,51.62,0,0,1,4.14-21.6,56.21,56.21,0,0,1,12-17.8,57.5,57.5,0,0,1,17.91-12.09,56,56,0,0,1,43.88,0,57.73,57.73,0,0,1,17.91,12.09,56.38,56.38,0,0,1,12,17.8,51.78,51.78,0,0,1,4.14,21.6Z" transform="translate(-17.69 -16.58)"/><path d="M1365.66,93.38a31.48,31.48,0,0,0-23,9.73,35.89,35.89,0,0,0-6.94,10.53,31.34,31.34,0,0,0-2.57,12.65,54.29,54.29,0,0,1-4.7,21.38,56.34,56.34,0,0,1-12.21,17.46A58.58,58.58,0,0,1,1298.38,177a54.09,54.09,0,0,1-21.6,4.37v-24a31.39,31.39,0,0,0,12.65-2.58,32.46,32.46,0,0,0,17.24-17.24,31.51,31.51,0,0,0,2.57-12.65,56.33,56.33,0,0,1,4.59-21.49,57.42,57.42,0,0,1,11.87-17.69,55.23,55.23,0,0,1,17.57-12,53.49,53.49,0,0,1,21.49-4.37Z" transform="translate(-17.69 -16.58)"/></svg>