<svg width="64" height="64" viewBox="0 0 64 64" fill="none" xmlns="http://www.w3.org/2000/svg">
<path d="M57.5927 0H6.21586C2.78293 0 0 2.79128 0 6.2345V57.7655C0 61.2087 2.78293 64 6.21586 64H57.5927C61.0256 64 63.8086 61.2087 63.8086 57.7655V6.2345C63.8086 2.79128 61.0256 0 57.5927 0Z" fill="url(#paint0_linear_460_134)"/>
<path d="M25.2346 42.9175C26.4914 42.9356 27.7391 42.7015 28.9044 42.2288C29.9827 41.7765 30.9771 41.1447 31.8457 40.3601L36.763 45.0931L36.6318 45.2246C35.1554 46.6495 33.4199 47.7769 31.5197 48.5455C29.5246 49.3608 27.3888 49.7736 25.2346 49.7603C23.0612 49.7728 20.9084 49.3376 18.9095 48.4816C16.963 47.657 15.1937 46.463 13.6989 44.9652C12.2026 43.4611 11.0016 41.6883 10.1585 39.739C9.27853 37.7181 8.8318 35.5343 8.84719 33.3292C8.83441 31.1137 9.28095 28.9197 10.1585 26.8864C10.9966 24.9247 12.198 23.1402 13.6989 21.6274C15.1942 20.1302 16.9634 18.9363 18.9095 18.111C20.9084 17.2551 23.0612 16.8198 25.2346 16.8323C27.3914 16.8187 29.5297 17.2321 31.5269 18.0489C33.4241 18.8161 35.157 19.9409 36.6318 21.3625L36.763 21.494L31.8457 26.227C30.9757 25.4398 29.9786 24.8067 28.8971 24.3546C27.7346 23.8808 26.4893 23.6454 25.2346 23.6623C23.9609 23.6546 22.6995 23.9121 21.5302 24.4186C20.3932 24.909 19.3593 25.6113 18.4833 26.4882C17.5994 27.3755 16.8955 28.4264 16.4107 29.5826C15.9078 30.767 15.6512 32.0419 15.6568 33.3292C15.6489 34.6061 15.9057 35.8707 16.4107 37.0429C17.3967 39.3464 19.2266 41.1825 21.5229 42.1722C22.6953 42.6759 23.9593 42.9297 25.2346 42.9175Z" fill="#2F7C8E"/>
<path d="M56.3303 32.2848C55.4836 32.2807 54.6449 32.4498 53.8655 32.7818C53.0861 33.1137 52.3823 33.6016 51.7973 34.2156C51.2214 34.824 50.7571 35.5296 50.4259 36.2999C50.0856 37.0911 49.9126 37.9444 49.9178 38.8061C49.899 40.2668 49.5829 41.7083 48.989 43.0422C48.412 44.3384 47.5942 45.5125 46.5795 46.502C45.5545 47.4968 44.3555 48.2938 43.0426 48.8529C41.6934 49.4302 40.2406 49.7242 38.7737 49.7169V44.9675C39.6328 44.9728 40.4836 44.7992 41.2724 44.4579C42.8066 43.8057 44.0279 42.5808 44.6781 41.042C45.0187 40.2502 45.1917 39.3962 45.1862 38.5339C45.2072 37.0683 45.5167 35.6212 46.0968 34.2759C46.6538 32.9718 47.4487 31.7836 48.4408 30.7723C49.4334 29.7625 50.6124 28.956 51.912 28.3976C53.2521 27.8175 54.6977 27.5226 56.1573 27.5318L56.3303 32.2848Z" fill="#2F7C8E"/>
<path d="M23.9734 41.3608C25.2304 41.3793 26.4783 41.1445 27.6431 40.6704C28.7244 40.2178 29.7214 39.5848 30.5917 38.798L35.509 43.5309L35.3779 43.6625C33.9015 45.0879 32.1652 46.2147 30.2639 46.9816C28.2676 47.7995 26.1297 48.213 23.9734 48.1982C21.8 48.2106 19.6471 47.7754 17.6482 46.9195C15.7018 46.0949 13.9325 44.9009 12.4377 43.4031C10.9406 41.8968 9.73957 40.1214 8.89723 38.1696C8.01751 36.1486 7.57077 33.9649 7.58595 31.7597C7.57317 29.5442 8.01972 27.3502 8.89723 25.317C9.73539 23.3553 10.9368 21.5708 12.4377 20.058C13.933 18.5607 15.7022 17.3668 17.6482 16.5416C19.6471 15.6856 21.8 15.2504 23.9734 15.2629C26.1296 15.2489 28.2674 15.6624 30.2639 16.4795C32.1648 17.247 33.901 18.3738 35.3779 19.7986L35.509 19.9301L30.5917 24.663C29.7214 23.8763 28.7244 23.2432 27.6431 22.7907C26.4787 22.3147 25.2307 22.078 23.9734 22.0947C22.6997 22.087 21.4383 22.3445 20.269 22.851C19.1306 23.3423 18.096 24.0466 17.2202 24.9261C16.3393 25.8129 15.638 26.8625 15.155 28.0168C14.6519 29.2012 14.3953 30.4761 14.401 31.7634C14.3931 33.0403 14.6499 34.3049 15.155 35.4771C16.1404 37.7806 17.9706 39.6162 20.2672 40.6046C21.4368 41.1121 22.699 41.3697 23.9734 41.3608Z" fill="white"/>
<path d="M55.0771 30.7212C54.2309 30.7167 53.3928 30.8854 52.614 31.2171C51.8352 31.5488 51.132 32.0364 50.5477 32.6502C49.9716 33.2591 49.5073 33.9653 49.1763 34.7362C48.8359 35.5274 48.6629 36.3808 48.6681 37.2425C48.6492 38.7032 48.3332 40.1447 47.7393 41.4786C47.1623 42.7747 46.3446 43.9489 45.3298 44.9383C44.3049 45.9337 43.1052 46.7301 41.7912 47.2874C40.443 47.8663 38.9906 48.161 37.524 48.1533V43.4039C38.3831 43.4091 39.234 43.2356 40.0228 42.8943C41.557 42.2421 42.7782 41.0171 43.4285 39.4783C43.7688 38.6872 43.9418 37.8338 43.9366 36.9721C43.9576 35.5065 44.267 34.0594 44.8472 32.7141C45.4028 31.4132 46.1952 30.2275 47.1839 29.2178C48.1762 28.2076 49.3552 27.401 50.6551 26.8431C51.9952 26.263 53.4408 25.9681 54.9004 25.9773L55.0771 30.7212Z" fill="white"/>
<defs>
<linearGradient id="paint0_linear_460_134" x1="31.9043" y1="0" x2="31.9043" y2="64" gradientUnits="userSpaceOnUse">
<stop/>
<stop offset="1" stop-color="#2F7C8E"/>
</linearGradient>
</defs>
</svg>
