<svg xmlns="http://www.w3.org/2000/svg" version="1.1" xmlns:xlink="http://www.w3.org/1999/xlink" xmlns:svgjs="http://svgjs.com/svgjs" width="1440" height="560" preserveAspectRatio="none" viewBox="0 0 1440 560"><g clip-path="url(&quot;#SvgjsClipPath1228&quot;)" fill="none"><rect width="1440" height="560" x="0" y="0" fill="url(#SvgjsLinearGradient1229)"></rect><circle r="93.335" cx="-67.71" cy="35.13" stroke="#365aa3" stroke-opacity="0.25" stroke-width="2"></circle><circle r="93.335" cx="337.75" cy="382.31" stroke="#365aa3" stroke-opacity="0.25" stroke-width="2"></circle><circle r="93.335" cx="829.04" cy="714.97" stroke="#365aa3" stroke-opacity="0.25" stroke-width="2"></circle><circle r="65.26" cx="911.99" cy="361.07" stroke="#365aa3" stroke-opacity="0.25" stroke-width="2"></circle><circle r="100.19" cx="820.92" cy="108.98" stroke="#365aa3" stroke-opacity="0.25" stroke-width="2"></circle><circle r="112.75" cx="1341.76" cy="246.42" stroke="#365aa3" stroke-opacity="0.25" stroke-width="2"></circle><circle r="143.7" cx="1003.6" cy="64.24" stroke="#365aa3" stroke-opacity="0.25" stroke-width="2"></circle><circle r="46.715" cx="1344.63" cy="436.23" stroke="#365aa3" stroke-opacity="0.25" stroke-width="2"></circle><circle r="133.1" cx="1248.48" cy="150.46" stroke="#365aa3" stroke-opacity="0.25" stroke-width="2"></circle><circle r="139.21" cx="772.89" cy="336.01" stroke="#365aa3" stroke-opacity="0.25" stroke-width="2"></circle><circle r="93.1" cx="107.34" cy="172.2" stroke="#365aa3" stroke-opacity="0.25" stroke-width="2"></circle><circle r="133.185" cx="478.9" cy="88.38" stroke="#365aa3" stroke-opacity="0.25" stroke-width="2"></circle><circle r="167.94" cx="325.68" cy="318.91" stroke="#365aa3" stroke-opacity="0.25" stroke-width="2"></circle><circle r="112.065" cx="1049.24" cy="491.11" stroke="#365aa3" stroke-opacity="0.25" stroke-width="2"></circle><circle r="111.335" cx="519.82" cy="139.37" stroke="#365aa3" stroke-opacity="0.25" stroke-width="2"></circle><circle r="157.71" cx="459.21" cy="518.98" stroke="#365aa3" stroke-opacity="0.25" stroke-width="2"></circle><circle r="137.62" cx="107.92" cy="143.11" stroke="#365aa3" stroke-opacity="0.25" stroke-width="2"></circle><circle r="171.135" cx="862.15" cy="416.47" stroke="#365aa3" stroke-opacity="0.25" stroke-width="2"></circle><circle r="120.28" cx="1177.52" cy="284.59" stroke="#365aa3" stroke-opacity="0.25" stroke-width="2"></circle><circle r="151.695" cx="1341.65" cy="125.44" stroke="#365aa3" stroke-opacity="0.25" stroke-width="2"></circle><circle r="149.025" cx="518.61" cy="197.32" stroke="#365aa3" stroke-opacity="0.25" stroke-width="2"></circle><circle r="168.19" cx="1339.62" cy="33.28" stroke="#365aa3" stroke-opacity="0.25" stroke-width="2"></circle><circle r="184.305" cx="455.12" cy="88.11" stroke="#365aa3" stroke-opacity="0.25" stroke-width="2"></circle><circle r="184.88" cx="1336.56" cy="95.43" stroke="#365aa3" stroke-opacity="0.25" stroke-width="2"></circle><circle r="93.035" cx="1020.13" cy="247.95" stroke="#365aa3" stroke-opacity="0.25" stroke-width="2"></circle><circle r="58.815" cx="1304.46" cy="193.65" stroke="#365aa3" stroke-opacity="0.25" stroke-width="2"></circle><circle r="125.185" cx="68.26" cy="120.44" stroke="#365aa3" stroke-opacity="0.25" stroke-width="2"></circle><circle r="159.61" cx="1029.37" cy="137.32" stroke="#365aa3" stroke-opacity="0.25" stroke-width="2"></circle><circle r="121.055" cx="605.95" cy="399.6" stroke="#365aa3" stroke-opacity="0.25" stroke-width="2"></circle><circle r="120.845" cx="301.7" cy="5.57" stroke="#365aa3" stroke-opacity="0.25" stroke-width="2"></circle><circle r="71.24" cx="1324.27" cy="162.66" stroke="#365aa3" stroke-opacity="0.25" stroke-width="2"></circle><circle r="125.11" cx="687.36" cy="514.04" stroke="#365aa3" stroke-opacity="0.25" stroke-width="2"></circle><circle r="124.78" cx="1245.34" cy="35.57" stroke="#365aa3" stroke-opacity="0.25" stroke-width="2"></circle><circle r="142.055" cx="1023.69" cy="51.48" stroke="#365aa3" stroke-opacity="0.25" stroke-width="2"></circle><circle r="103.41" cx="447.14" cy="420.6" stroke="#365aa3" stroke-opacity="0.25" stroke-width="2"></circle><circle r="108.245" cx="928.63" cy="215.64" stroke="#365aa3" stroke-opacity="0.25" stroke-width="2"></circle><circle r="139.795" cx="1306.14" cy="120.82" stroke="#365aa3" stroke-opacity="0.25" stroke-width="2"></circle><circle r="142.86" cx="67.01" cy="151.69" stroke="#365aa3" stroke-opacity="0.25" stroke-width="2"></circle><circle r="87.965" cx="916.14" cy="72.14" stroke="#365aa3" stroke-opacity="0.25" stroke-width="2"></circle><circle r="119.155" cx="420.47" cy="548.66" stroke="#365aa3" stroke-opacity="0.25" stroke-width="2"></circle><circle r="139.225" cx="1292.99" cy="108.66" stroke="#365aa3" stroke-opacity="0.25" stroke-width="2"></circle><circle r="55.695" cx="754.56" cy="198.09" stroke="#365aa3" stroke-opacity="0.25" stroke-width="2"></circle><circle r="136.465" cx="1061.83" cy="115.68" stroke="#365aa3" stroke-opacity="0.25" stroke-width="2"></circle><circle r="97.27" cx="1120.95" cy="520.24" stroke="#365aa3" stroke-opacity="0.25" stroke-width="2"></circle><circle r="103.735" cx="53.13" cy="180.16" stroke="#365aa3" stroke-opacity="0.25" stroke-width="2"></circle><circle r="130.185" cx="862" cy="325.2" stroke="#365aa3" stroke-opacity="0.25" stroke-width="2"></circle><circle r="73.315" cx="1423.24" cy="198.88" stroke="#365aa3" stroke-opacity="0.25" stroke-width="2"></circle><circle r="132.95" cx="890.82" cy="80.31" stroke="#365aa3" stroke-opacity="0.25" stroke-width="2"></circle><circle r="142.53" cx="387.07" cy="386.36" stroke="#365aa3" stroke-opacity="0.25" stroke-width="2"></circle></g><defs><clipPath id="SvgjsClipPath1228"><rect width="1440" height="560" x="0" y="0"></rect></clipPath><linearGradient x1="15.28%" y1="-39.29%" x2="84.72%" y2="139.29%" gradientUnits="userSpaceOnUse" id="SvgjsLinearGradient1229"><stop stop-color="#0e2a47" offset="0"></stop><stop stop-color="rgba(243, 244, 246, 1)" offset="1"></stop></linearGradient></defs></svg>